<?xml version="1.0" encoding="utf-8" ?><svg xmlns="http://www.w3.org/2000/svg" xmlns:xlink="http://www.w3.org/1999/xlink" width="800" height="800" viewBox="0 0 800 800"><path fill="#2C2E34" d="M154.887 761.733C147.469 761.339 137.091 757.667 129.873 755.587C119.632 752.636 108.071 746.633 99.0245 740.947C64.9279 719.715 40.6835 685.786 31.6433 646.65C26.6523 624.19 27.6112 607.508 27.6071 584.886L27.6116 531.107L27.6075 357.368L27.6337 230.349L27.6139 191.378C27.6093 185.021 27.3655 175.232 27.9142 169.175C29.6278 150.259 36.4761 127.027 46.6998 110.865C64.6642 82.413 93.3716 62.436 126.293 55.4773C129.262 54.8213 144.97 51.9736 147.323 51.8295C161.709 50.9486 177.475 51.214 191.968 51.2367L248.066 51.2889L442.345 51.3055L572.066 51.3016L611.959 51.2241C617.055 51.2131 632.358 50.9073 636.502 51.6071C645.623 53.1471 660.627 54.3043 669.083 56.592C683.316 60.443 702.035 68.6556 714.229 76.5795C746.661 97.6652 769.317 130.843 777.151 168.725C779.146 178.185 780.292 187.804 780.573 197.468C781.256 216.756 780.76 238.468 780.738 257.94L780.73 360.883L780.708 465.882C780.703 480.76 780.999 495.689 780.9 510.564C780.882 513.267 780.54 517.564 779.062 519.822C776.768 523.326 773.686 526.625 769.421 527.581C760.617 528.642 750.932 528.005 741.965 527.977L678.12 528.027C667.74 528.057 656.368 528.153 646.102 528.156C627.326 527.538 625.603 539.887 626.193 555.605C626.639 567.51 624.966 581.581 626.211 593.47C626.691 598.049 629.682 603.376 631.796 607.521C641.948 619.173 665.77 627.63 680.738 632.319C686.464 635.447 695.946 637.506 702.289 640.028C715.066 645.109 719.318 645.214 719.211 660.744L719.094 679.909C719.354 684.07 719.502 687.257 719.44 691.457C719.33 693.778 719.269 696.18 718.986 698.479C729.57 699.227 740.551 698.421 751.193 698.693C760.395 698.928 770.394 699.038 771.172 710.813C771.774 722.574 771.439 734.377 771.829 746.147C771.897 748.185 771.881 750.243 771.748 752.278C771.559 755.34 771.341 758.057 770.994 761.103L770.797 761.324C767.49 770.767 755.503 768.776 747.405 768.896C737.266 769.084 727.126 769.101 716.987 768.946C705.035 768.871 692.947 769.086 680.994 768.536C678.811 768.436 676.954 767.819 674.955 766.988L673.169 766.445C666.558 766.362 658.423 766.828 652.343 764.429C649.783 763.413 647.093 763.907 643.372 762.074C642.465 761.527 640.492 760.776 639.437 760.334C636.484 758.562 632.108 756.335 628.897 754.49C605.639 740.114 592.605 714.292 578.153 691.968C576.795 690.738 572.241 683.295 570.708 681.272C565.121 673.899 554.52 666.031 545.703 663.297C531.32 658.836 513.216 660.66 498.218 660.786C487.64 660.781 478.797 660.895 468.059 660.835C459.662 660.789 447.158 661.999 439.347 657.656C439.409 657.69 437.178 654.389 436.898 654.006C436.001 639.511 436.656 619.752 436.573 604.834C436.502 591.982 435.914 572.674 436.892 560.429C444.322 558.962 454.185 559.364 461.973 559.503C474.101 559.694 486.232 559.719 498.361 559.576C503.711 559.471 510.966 559.504 516.114 558.68C516.011 556.027 516.059 553.63 516.118 550.975L516.315 528.251C516.346 523.178 516.526 517.269 515.774 512.265C515.337 509.352 512.983 507.14 510.624 505.555C499.258 505.063 487.667 505.627 476.286 505.414C463.137 505.167 449.495 506.127 436.437 504.699C436.94 497.927 436.544 484.907 436.56 477.57L436.58 421.246C436.576 412.723 436.101 402.038 437.222 393.606C437.587 390.86 440.663 388.002 442.423 385.944C451.709 385.055 459.694 385.603 468.75 385.567L518.3 385.644L644.15 385.436L683.677 385.457C691.078 385.464 701.21 386.075 708.2 384.934C707.743 385.727 707.441 386.378 706.837 387.057C708.295 387.096 711.504 387.149 712.666 386.507C715.69 382.168 717.499 366.13 717.197 360.676C714.866 366.123 716.794 375.025 714.05 380.866C713.251 382.568 713.51 383.841 712.221 385.837L711.562 386.085C711.569 381.08 714.776 366.25 713.302 361.649C712.294 346.66 712.48 328.794 712.443 313.603L712.244 229.324C711.966 206.098 715.285 188.758 704.728 166.927C697.88 152.766 692.704 144.897 680.761 134.493C668.188 123.559 652.742 116.461 636.255 114.044C619.279 111.508 607.718 111.778 590.67 111.776L551.472 111.778L416.613 111.799L250.353 111.796L195.685 111.767C185.45 111.764 174.701 111.506 164.621 112.021C149.403 112.798 130.62 119.025 118.504 128.526C105.357 138.837 97.2554 155.721 95.591 172.152C94.6027 181.908 94.8211 191.642 94.8022 201.327L94.7595 241.452L94.7874 370.327L94.8093 524.425L94.7233 570.683C94.6628 603.303 93.4084 632.674 115.323 658.854C119.49 663.834 122.382 667.677 127.46 672.06C140.936 683.568 157.176 691.37 174.582 694.7C181.301 695.975 199.495 696.1 206.475 696.095L245.332 696.064L427.86 696.092L478.11 696.113C485.15 696.12 492.19 696.186 499.229 696.312C503.619 696.35 507.908 696.17 512.29 696.715C514.273 696.961 515.531 697.593 517.189 697.919C520.217 699.008 523.978 701.961 525.907 704.524C531.498 710.704 535.748 720.786 540.777 727.5C547.333 736.252 564.37 757.587 545.351 763.24C540.2 764.142 526.191 763.819 520.221 763.827L475.233 763.943C440.439 764.109 405.645 764.031 370.852 763.709C357.059 763.675 343.902 764.139 329.798 763.91C302.666 764.099 275.534 764.134 248.402 764.015C231.869 764.012 214.596 764.324 198.127 764.026C195.148 763.505 185.718 763.318 184.234 761.822C184.76 761.931 191.443 761.779 191.53 761.718C189.878 761.106 178.113 761.239 175.568 761.279C174.413 761.37 172.545 761.426 171.543 761.813C172.683 761.795 173.726 761.648 174.736 762.109L174.756 762.492C171.322 762.527 168.184 762.548 164.751 762.393C161.682 762.254 157.713 761.292 154.887 761.733Z"/><defs><linearGradient id="gradient_0" gradientUnits="userSpaceOnUse" x1="603.65613" y1="647.67841" x2="705.58685" y2="726.64972"><stop offset="0" stop-color="#6B4033"/><stop offset="1" stop-color="#FF8835"/></linearGradient></defs><path fill="url(#gradient_0)" d="M628.212 607.241C627.968 605.897 627.707 605.398 627.072 604.179L627.257 603.321C629.394 603.718 629.861 606.511 631.796 607.521C641.948 619.173 665.77 627.63 680.738 632.319C686.464 635.447 695.946 637.506 702.289 640.028C715.066 645.109 719.318 645.214 719.211 660.744L719.094 679.909C719.354 684.07 719.502 687.257 719.44 691.457C719.33 693.778 719.269 696.18 718.986 698.479C729.57 699.227 740.551 698.421 751.193 698.693C760.395 698.928 770.394 699.038 771.172 710.813C771.774 722.574 771.439 734.377 771.829 746.147C771.897 748.185 771.881 750.243 771.748 752.278C771.559 755.34 771.341 758.057 770.994 761.103L770.797 761.324C767.49 770.767 755.503 768.776 747.405 768.896C737.266 769.084 727.126 769.101 716.987 768.946C705.035 768.871 692.947 769.086 680.994 768.536C678.811 768.436 676.954 767.819 674.955 766.988L673.169 766.445C666.558 766.362 658.423 766.828 652.343 764.429C649.783 763.413 647.093 763.907 643.372 762.074C642.465 761.527 640.492 760.776 639.437 760.334C636.484 758.562 632.108 756.335 628.897 754.49C605.639 740.114 592.605 714.292 578.153 691.968L578.691 691.825C581.214 694.199 580.784 696.03 584.484 699.087L584.899 698.992C584.167 694.575 577.165 687.506 575.725 682.773C577.471 684.171 578.124 686.07 579.44 687.942L579.822 687.274C576.94 682.963 575.828 682.009 581.418 679.389C585.625 677.418 587.729 675.775 589.661 671.425L589.332 670.918C591.712 668.441 594.257 662.718 596.027 659.635C596.016 659.654 597.802 658.908 597.982 658.832C599.031 658.079 601.301 654.849 601.107 653.516L600.509 653.099C602.481 651.326 605.042 646.021 609.274 642.287L609.74 642.192C611.05 640.915 614.192 638.072 614.926 636.623C615.707 634.613 621.677 629.876 623.217 627.975C623.398 627.752 624.911 624.661 625.3 623.962L626.571 623.685L626.167 622.67L627.57 621.533C627.517 621.077 627.398 620.7 627.246 620.269C628.127 619.443 627.625 619.764 628.908 619.531L629.644 619.316C630.191 618.383 630.761 617.465 631.354 616.561C632.204 615.725 632.185 615.75 633.241 615.186C634.105 615.306 633.672 615.334 634.54 615.079C632.629 613.379 628.948 609.681 628.212 607.241Z"/><path fill="#FEBD3F" d="M710.228 690.626C712.107 689.232 713.028 687.916 715.074 686.668L715.651 687.026L715.794 688.057C716.309 689.063 716.608 690.034 717.567 690.495C718.092 690.294 718.495 690.128 719.037 689.971L719.44 691.457C719.33 693.778 719.269 696.18 718.986 698.479C729.57 699.227 740.551 698.421 751.193 698.693C760.395 698.928 770.394 699.038 771.172 710.813C771.774 722.574 771.439 734.377 771.829 746.147C771.897 748.185 771.881 750.243 771.748 752.278C771.559 755.34 771.341 758.057 770.994 761.103L770.797 761.324C767.49 770.767 755.503 768.776 747.405 768.896C737.266 769.084 727.126 769.101 716.987 768.946C705.035 768.871 692.947 769.086 680.994 768.536C678.811 768.436 676.954 767.819 674.955 766.988C675.71 766.163 675.816 765.939 676.402 764.969C674.803 751.564 676.177 732.158 676.013 718.332C675.93 711.386 676.014 695.117 677.118 688.904C686.293 690.597 700.806 690.821 710.228 690.626Z"/><path fill="#F79633" d="M676.402 764.969L676.731 765.874C678.607 766.971 696.199 765.955 699.796 765.964L746.937 766.443C750.169 766.458 761.593 766.873 764.121 766.628C765.928 765.579 766.194 764.675 767.269 762.824L767.548 762.872L767.44 764.623L768.178 764.335C770.885 761.199 770.258 756.16 771.748 752.278C771.559 755.34 771.341 758.057 770.994 761.103L770.797 761.324C767.49 770.767 755.503 768.776 747.405 768.896C737.266 769.084 727.126 769.101 716.987 768.946C705.035 768.871 692.947 769.086 680.994 768.536C678.811 768.436 676.954 767.819 674.955 766.988C675.71 766.163 675.816 765.939 676.402 764.969Z"/><path fill="#F79633" d="M715.794 688.057C716.309 689.063 716.608 690.034 717.567 690.495C718.092 690.294 718.495 690.128 719.037 689.971L719.44 691.457C719.33 693.778 719.269 696.18 718.986 698.479L718.442 697.414C718.178 697.297 716.672 696.602 716.465 696.458C715.246 695.61 716.748 690.587 715.885 688.582C715.855 688.407 715.824 688.232 715.794 688.057Z"/><defs><linearGradient id="gradient_1" gradientUnits="userSpaceOnUse" x1="596.27173" y1="729.87415" x2="616.08905" y2="721.67841"><stop offset="0" stop-color="#411B19"/><stop offset="1" stop-color="#6D3623"/></linearGradient></defs><path fill="url(#gradient_1)" d="M575.725 682.773C577.471 684.171 578.124 686.07 579.44 687.942C582.058 692.569 585.961 697.441 588.842 702.092C599.083 718.626 613.209 740.702 630.15 750.975L628.897 754.49C605.639 740.114 592.605 714.292 578.153 691.968L578.691 691.825C581.214 694.199 580.784 696.03 584.484 699.087L584.899 698.992C584.167 694.575 577.165 687.506 575.725 682.773Z"/><path fill="#8E462A" d="M680.738 632.319C686.464 635.447 695.946 637.506 702.289 640.028C715.066 645.109 719.318 645.214 719.211 660.744L719.094 679.909C718.48 677.197 718.721 673.224 718.501 670.156C717.648 671.917 718.68 673.69 717.844 675.182C715.846 673.518 718.772 652.41 711.873 648.372C701.062 642.046 688.757 640.478 677.662 635.067C679.003 633.432 678.913 633.035 680.738 632.319Z"/><path fill="#592D1F" d="M628.212 607.241C627.968 605.897 627.707 605.398 627.072 604.179L627.257 603.321C629.394 603.718 629.861 606.511 631.796 607.521C641.948 619.173 665.77 627.63 680.738 632.319C678.913 633.035 679.003 633.432 677.662 635.067C675.29 633.869 671.666 632.688 669.148 631.64C656.761 626.488 645.122 623.635 634.54 615.079C632.629 613.379 628.948 609.681 628.212 607.241Z"/><path fill="#8E462A" d="M630.15 750.975C634.303 753.339 640.101 757.797 644.291 758.609L645.235 759.543C644.54 760.431 643.964 761.108 643.372 762.074C642.465 761.527 640.492 760.776 639.437 760.334C636.484 758.562 632.108 756.335 628.897 754.49L630.15 750.975Z"/><path fill="#B5532C" d="M655.538 762.051C661.157 763.155 667.746 763.456 672.318 766.128C672.487 766.227 672.95 766.372 673.169 766.445C666.558 766.362 658.423 766.828 652.343 764.429C653.424 763.692 654.493 762.848 655.538 762.051Z"/><path fill="#8E462A" d="M645.235 759.543C649.212 760.766 651.566 761.173 655.538 762.051C654.493 762.848 653.424 763.692 652.343 764.429C649.783 763.413 647.093 763.907 643.372 762.074C643.964 761.108 644.54 760.431 645.235 759.543Z"/><path fill="#F79633" d="M623.938 677.969C628.813 678.928 630.604 680.424 635.037 682.263C637.113 683.124 640.778 683.123 642.328 684.44L642.279 685.055C641.197 686.108 640.413 686.066 638.909 686.32C640.532 686.287 641.19 685.975 642.324 686.685C641.328 688.102 635.064 689.327 633.285 689.638C632.033 689.853 630.779 690.056 629.523 690.247C626.892 690.505 620.178 691.257 618.232 689.398L618.358 688.519C617.02 685.825 616.828 684.734 616.273 681.884C619.187 679.539 620.497 678.995 623.938 677.969Z"/><path fill="#8E462A" d="M638.909 686.32C640.532 686.287 641.19 685.975 642.324 686.685C641.328 688.102 635.064 689.327 633.285 689.638C632.033 689.853 630.779 690.056 629.523 690.247C628.569 689.415 628.531 689.438 627.371 688.887C630.812 687.953 635.353 687.097 638.909 686.32Z"/><path fill="#592D1F" d="M618.358 688.519C621.732 689.174 623.901 689.262 627.371 688.887C628.531 689.438 628.569 689.415 629.523 690.247C626.892 690.505 620.178 691.257 618.232 689.398L618.358 688.519Z"/><path fill="#010102" d="M154.887 761.733C147.469 761.339 137.091 757.667 129.873 755.587C119.632 752.636 108.071 746.633 99.0245 740.947C64.9279 719.715 40.6835 685.786 31.6433 646.65C26.6523 624.19 27.6112 607.508 27.6071 584.886L27.6116 531.107L27.6075 357.368L27.6337 230.349L27.6139 191.378C27.6093 185.021 27.3655 175.232 27.9142 169.175C29.6278 150.259 36.4761 127.027 46.6998 110.865C64.6642 82.413 93.3716 62.436 126.293 55.4773C129.262 54.8213 144.97 51.9736 147.323 51.8295C161.709 50.9486 177.475 51.214 191.968 51.2367L248.066 51.2889L442.345 51.3055L572.066 51.3016L611.959 51.2241C617.055 51.2131 632.358 50.9073 636.502 51.6071C645.623 53.1471 660.627 54.3043 669.083 56.592C683.316 60.443 702.035 68.6556 714.229 76.5795C746.661 97.6652 769.317 130.843 777.151 168.725C779.146 178.185 780.292 187.804 780.573 197.468C781.256 216.756 780.76 238.468 780.738 257.94L780.73 360.883L780.708 465.882C780.703 480.76 780.999 495.689 780.9 510.564C780.882 513.267 780.54 517.564 779.062 519.822C776.768 523.326 773.686 526.625 769.421 527.581C760.617 528.642 750.932 528.005 741.965 527.977L678.12 528.027C667.74 528.057 656.368 528.153 646.102 528.156C627.326 527.538 625.603 539.887 626.193 555.605C626.639 567.51 624.966 581.581 626.211 593.47C626.691 598.049 629.682 603.376 631.796 607.521C629.861 606.511 629.394 603.718 627.257 603.321L627.072 604.179C627.707 605.398 627.968 605.897 628.212 607.241C625.126 602.689 623.824 597.209 622.887 591.89C624.087 577.77 622.444 563.234 623.412 548.46C624.386 533.611 626.267 527.298 642.862 525.619C681.681 524.82 720.908 526.187 759.777 525.919C769.877 525.876 776.961 521.613 778.007 510.653C778.773 502.632 778.167 493.576 778.049 485.446L777.367 442.866C776.985 425.122 777.454 406.528 777.234 388.691C777.088 376.892 776.871 365.042 776.797 353.251L776.882 235.782C776.852 221.978 777.163 208.161 776.449 194.38C776.147 188.564 776.158 180.419 774.871 174.839C770.725 156.87 765.441 138.593 755.246 123.022C750.565 115.872 744.431 108.97 739.134 102.347C735.364 97.6335 731.101 94.4339 726.807 90.5629C709.796 75.2271 688.64 65.3388 666.544 59.8283C661.202 58.4959 657.049 57.1027 651.409 56.652C627.656 54.7534 603.697 55.2405 579.883 55.409L515.624 55.6587C508.954 55.7435 502.205 55.3547 495.508 55.3469C478.786 55.4688 462.064 55.5051 445.341 55.4556L362.199 55.8221L223.752 55.7412L174.842 55.3526C161.681 55.3542 143.067 55.6379 130.035 57.9367C114.591 60.6609 96.1744 69.3524 83.1091 77.8123C77.9388 81.4636 73.2968 85.8925 68.3964 89.8737C64.386 93.1319 61.5015 97.2845 58.2054 101.172C29.133 135.46 30.4489 178.107 30.8662 220.278L30.9132 266.902L31.0289 436.981L30.9969 557.722C30.9346 605.37 26.8538 651.238 54.7233 691.984C58.3561 697.296 60.4951 701.687 64.6728 706.696C87.058 733.533 115.201 750.125 149.222 757.779C157.643 759.674 167.044 759.747 175.568 761.279C174.413 761.37 172.545 761.426 171.543 761.813C172.683 761.795 173.726 761.648 174.736 762.109L174.756 762.492C171.322 762.527 168.184 762.548 164.751 762.393C161.682 762.254 157.713 761.292 154.887 761.733Z"/><path fill="#010102" d="M514.057 699.981C508.76 698.142 494.626 699.274 488.123 699.262C466.222 699.191 444.322 699.287 422.423 699.549L325.851 699.096L223.614 699.154C208.116 699.046 192.715 699.304 177.215 698.404C175.333 698.294 172.77 698.232 170.952 697.836C148.031 692.838 127.168 680.232 113.174 661.264C110.902 658.187 108.023 655.567 105.873 652.132C89.8565 626.54 91.6402 597.188 91.3606 568.36C91.1979 551.586 90.6545 535.095 90.6201 518.536L91.0274 452.487L90.6136 269.481C90.5833 240.745 89.8351 211.86 90.6474 183.139C91.2357 162.335 98.8814 141.865 114.273 127.507C123.358 119.031 141.312 111.405 153.746 109.774C161.368 108.775 169.382 109.021 177.063 109.007L209.068 108.993L315.915 108.966L519.389 108.965L580.56 108.971C614.414 108.972 647.985 106.061 676.723 126.975C685.719 133.522 687.511 135.34 694.801 143.45C721.188 172.806 715.729 207.848 716.53 244.718C717.196 271.756 717.456 298.802 717.309 325.847C717.28 337.182 717.695 349.487 717.197 360.676C714.866 366.123 716.794 375.025 714.05 380.866C713.251 382.568 713.51 383.841 712.221 385.837L711.562 386.085C711.569 381.08 714.776 366.25 713.302 361.649C712.294 346.66 712.48 328.794 712.443 313.603L712.244 229.324C711.966 206.098 715.285 188.758 704.728 166.927C697.88 152.766 692.704 144.897 680.761 134.493C668.188 123.559 652.742 116.461 636.255 114.044C619.279 111.508 607.718 111.778 590.67 111.776L551.472 111.778L416.613 111.799L250.353 111.796L195.685 111.767C185.45 111.764 174.701 111.506 164.621 112.021C149.403 112.798 130.62 119.025 118.504 128.526C105.357 138.837 97.2554 155.721 95.591 172.152C94.6027 181.908 94.8211 191.642 94.8022 201.327L94.7595 241.452L94.7874 370.327L94.8093 524.425L94.7233 570.683C94.6628 603.303 93.4084 632.674 115.323 658.854C119.49 663.834 122.382 667.677 127.46 672.06C140.936 683.568 157.176 691.37 174.582 694.7C181.301 695.975 199.495 696.1 206.475 696.095L245.332 696.064L427.86 696.092L478.11 696.113C485.15 696.12 492.19 696.186 499.229 696.312C503.619 696.35 507.908 696.17 512.29 696.715C514.273 696.961 515.531 697.593 517.189 697.919C516.686 700.289 516.563 699.921 514.057 699.981Z"/><path fill="#010102" d="M442.423 385.944C451.709 385.055 459.694 385.603 468.75 385.567L518.3 385.644L644.15 385.436L683.677 385.457C691.078 385.464 701.21 386.075 708.2 384.934C707.743 385.727 707.441 386.378 706.837 387.057C692.704 390.248 683.731 389.467 669.396 389.417C660.591 389.4 651.787 389.442 642.983 389.541L512.89 389.687L472.74 389.753C460.353 389.699 454.415 389.141 441.529 390.35C440.838 396.551 440.785 403.098 440.622 409.356C440.036 432.216 440.778 455.097 440.027 477.956C439.918 481.283 440.273 484.743 440.197 488.081C440.09 492.825 438.116 497.599 441.11 501.904C445.859 504.987 503.578 499.488 514.415 504.221C516.003 506.169 519.302 511.291 519.438 513.701C520.26 528.366 519.879 543.221 518.329 557.842C517.769 563.123 509.01 562.701 504.988 562.699L504.362 562.337L504.026 560.227C512.519 559.761 518.991 562.746 516.118 550.975L516.315 528.251C516.346 523.178 516.526 517.269 515.774 512.265C515.337 509.352 512.983 507.14 510.624 505.555C499.258 505.063 487.667 505.627 476.286 505.414C463.137 505.167 449.495 506.127 436.437 504.699C436.94 497.927 436.544 484.907 436.56 477.57L436.58 421.246C436.576 412.723 436.101 402.038 437.222 393.606C437.587 390.86 440.663 388.002 442.423 385.944Z"/><defs><linearGradient id="gradient_2" gradientUnits="userSpaceOnUse" x1="435.72174" y1="642.29913" x2="572.3136" y2="619.86249"><stop offset="0" stop-color="black"/><stop offset="1" stop-color="#261819"/></linearGradient></defs><path fill="url(#gradient_2)" d="M516.118 550.975C518.991 562.746 512.519 559.761 504.026 560.227C504.02 561.681 504.229 562.049 503.576 563.185C500.186 563.952 485.612 563.678 481.517 563.638C468.174 563.507 454.564 563.698 441.247 563.41C440.372 577.433 440.597 591.245 440.301 605.275C439.917 619.645 439.625 634.086 440.217 648.45C440.269 649.693 440.798 652.709 441.421 653.691C445.327 659.846 454.391 657.865 461.014 657.892L509.359 657.738C525.875 657.715 535.32 657.033 551.512 661.884C560.052 665.887 571.492 674.312 575.725 682.773C577.165 687.506 584.167 694.575 584.899 698.992L584.484 699.087C580.784 696.03 581.214 694.199 578.691 691.825L578.153 691.968C576.795 690.738 572.241 683.295 570.708 681.272C565.121 673.899 554.52 666.031 545.703 663.297C531.32 658.836 513.216 660.66 498.218 660.786C487.64 660.781 478.797 660.895 468.059 660.835C459.662 660.789 447.158 661.999 439.347 657.656C439.409 657.69 437.178 654.389 436.898 654.006C436.001 639.511 436.656 619.752 436.573 604.834C436.502 591.982 435.914 572.674 436.892 560.429C444.322 558.962 454.185 559.364 461.973 559.503C474.101 559.694 486.232 559.719 498.361 559.576C503.711 559.471 510.966 559.504 516.114 558.68C516.011 556.027 516.059 553.63 516.118 550.975Z"/><path fill="#1C191A" d="M329.798 763.91C331.415 762.608 360.959 764.609 366.33 761.952L366.328 761.609C363.487 761.682 357.658 761.962 355.064 761.549L355.192 761.307C363.05 760.599 378.189 761.12 386.169 761.134L449.198 761.2C457.044 761.158 464.813 760.519 472.7 760.679C488.967 761.009 505.214 760.631 521.504 760.698C525.359 760.75 529.214 760.719 533.068 760.607C536.066 760.498 540.388 760.119 543.266 760.353C543.468 762.052 543.167 761.952 544.109 762.91L545.351 763.24C540.2 764.142 526.191 763.819 520.221 763.827L475.233 763.943C440.439 764.109 405.645 764.031 370.852 763.709C357.059 763.675 343.902 764.139 329.798 763.91Z"/><path fill="#010102" d="M525.907 704.524C531.498 710.704 535.748 720.786 540.777 727.5C547.333 736.252 564.37 757.587 545.351 763.24L544.109 762.91C543.167 761.952 543.468 762.052 543.266 760.353C554.31 757.399 552.543 747.583 546.467 740.562C538.478 731.332 533.139 719.322 525.553 710.01C525.681 708.182 525.799 706.354 525.907 704.524Z"/><path fill="#8E462A" d="M551.512 661.884C552.47 661.537 553.467 661.982 554.465 662.517C563.877 667.563 570.964 674.046 576.718 682.73C576.783 681.679 576.842 682.049 576.448 681.04C579.02 679.005 580.914 679.08 583.124 677.252C585.16 675.566 587.26 672.41 589.661 671.425C587.729 675.775 585.625 677.418 581.418 679.389C575.828 682.009 576.94 682.963 579.822 687.274L579.44 687.942C578.124 686.07 577.471 684.171 575.725 682.773C571.492 674.312 560.052 665.887 551.512 661.884Z"/><path fill="#1C191A" d="M517.189 697.919C520.217 699.008 523.978 701.961 525.907 704.524C525.799 706.354 525.681 708.182 525.553 710.01C520.28 704.583 521.574 702.797 514.057 699.981C516.563 699.921 516.686 700.289 517.189 697.919Z"/><path fill="#8E462A" d="M631.354 616.561C630.557 615.494 630.648 616.044 630.693 614.948C631.252 614.723 631.468 614.652 632.068 614.486L632.591 614.346C632.176 612.92 627.67 608.853 627.271 607.58C626.646 605.583 623.767 600.312 623.486 598.556C623.015 595.609 622.749 593.159 622.086 590.03L622.392 589.492L622.028 589.351L622.275 589.207C622.559 590.167 622.699 590.919 622.887 591.89C623.824 597.209 625.126 602.689 628.212 607.241C628.948 609.681 632.629 613.379 634.54 615.079C633.672 615.334 634.105 615.306 633.241 615.186C632.185 615.75 632.204 615.725 631.354 616.561Z"/><path fill="#8E462A" d="M609.274 642.287C609.731 640.506 613.116 637.13 614.926 636.623C614.192 638.072 611.05 640.915 609.74 642.192L609.274 642.287Z"/><path fill="#8E462A" d="M597.982 658.832C597.615 656.782 599.255 655.669 600.214 653.701L601.107 653.516C601.301 654.849 599.031 658.079 597.982 658.832Z"/><path fill="#8E462A" d="M628.908 619.531L628.519 618.694C629.265 617.281 629.188 617.276 630.439 616.349L631.354 616.561C630.761 617.465 630.191 618.383 629.644 619.316L628.908 619.531Z"/><path fill="#010102" d="M181.689 178.703C204.88 178.276 228.438 178.895 251.672 178.874C259.065 178.885 266.458 178.836 273.851 178.728C281.013 178.612 293.381 177.304 299.556 181.414C303.215 183.85 302.98 187.802 303.182 191.869C303.626 200.847 303.52 209.957 303.512 218.979L303.447 259.314L303.409 295.087C303.408 299.957 304.264 319.432 301.39 323.096C298.057 327.346 285.129 326.93 279.605 326.933L206.078 326.919C192.471 326.92 177.297 327.489 163.792 325.757C161.441 325.455 159.37 323.471 157.581 321.949C157.284 320.758 157.015 319.56 156.776 318.356C155.897 313.815 156.217 295.785 156.243 290.309L156.278 241.554L156.258 204.884C156.252 199.355 156.136 193.496 156.274 187.969C156.324 185.99 158.091 183.595 159.211 181.916C167.314 178.23 172.946 178.745 181.689 178.703Z"/><path fill="#2C2E34" d="M163.178 183.348C173.306 182.991 184.194 183.18 194.392 183.186L248.048 183.225L278.229 183.192C283.374 183.187 291.529 182.952 296.408 183.591C297.601 184.79 298.33 185.858 299.316 187.204C300.246 193.573 299.954 207.907 299.945 214.698L299.861 262.672L299.841 297.592C299.846 303.879 300.071 310.726 299.457 316.957C299.238 319.177 298.094 320.442 296.358 321.711C291.851 322.126 283.434 321.865 278.591 321.856L245.267 321.819C218.976 321.79 188.313 322.536 162.388 321.409C161.187 320.526 160.389 319.596 159.364 318.515C158.693 290.845 159.43 260.64 159.371 232.761L159.301 203.423C159.309 197.566 157.947 186.798 163.178 183.348Z"/><path fill="#2C2E34" d="M270.818 385.918C291.483 384.681 313.76 386.509 334.55 385.7C342.066 385.408 347.505 385.338 354.629 387.942C355.705 389.388 358.162 392.577 358.363 394.189C359.314 401.817 358.802 411.108 358.739 418.855L358.735 479.46C358.744 485.224 358.293 501.387 359.179 506.186C372.779 506.276 387.107 506.619 400.579 506.525L419.344 506.473C422.302 506.439 433.959 505.673 435.922 507.433C434.333 519.329 435.456 532.271 434.981 544.41C434.797 549.096 435.31 554.363 434.559 559.02L384.366 559.081C378.017 559.089 364.422 559.511 358.696 559.017C358.401 569.743 359.138 581.123 358.547 591.862C358.33 595.789 356.356 597.947 353.387 600.182C341.898 601.389 320.654 600.548 308.322 600.544L287.235 600.601C279.514 600.654 275.86 601.288 268.262 599.862C263.827 595.645 263.399 594.406 263.403 588.088C263.415 569.558 263.422 551.001 263.415 532.471C263.412 524.552 263.552 514.88 263.092 507.03C267.518 506.312 276.302 506.683 281.035 506.627C292.974 506.485 305.278 506.895 317.21 506.607L317.307 506.39C317.746 502.606 317.443 492.868 317.408 488.66C317.322 478.036 317.758 466.375 317.098 455.863C301.862 455.886 286.705 455.228 271.476 455.983C268.769 456.117 266.164 455.564 263.582 454.817C263.516 453.259 263.532 451.626 263.52 450.059L263.469 448.635C263.37 437.646 263.361 426.656 263.442 415.667C263.442 408.759 263.154 401.811 263.826 394.939C264.391 389.161 266.887 388.968 270.818 385.918Z"/><path fill="#010102" d="M270.818 385.918C291.483 384.681 313.76 386.509 334.55 385.7C342.066 385.408 347.505 385.338 354.629 387.942C355.705 389.388 358.162 392.577 358.363 394.189C359.314 401.817 358.802 411.108 358.739 418.855L358.735 479.46C358.744 485.224 358.293 501.387 359.179 506.186C372.779 506.276 387.107 506.619 400.579 506.525L419.344 506.473C422.302 506.439 433.959 505.673 435.922 507.433C434.333 519.329 435.456 532.271 434.981 544.41C434.797 549.096 435.31 554.363 434.559 559.02L384.366 559.081C378.017 559.089 364.422 559.511 358.696 559.017C358.401 569.743 359.138 581.123 358.547 591.862C358.33 595.789 356.356 597.947 353.387 600.182C341.898 601.389 320.654 600.548 308.322 600.544L287.235 600.601C279.514 600.654 275.86 601.288 268.262 599.862C263.827 595.645 263.399 594.406 263.403 588.088C263.415 569.558 263.422 551.001 263.415 532.471C263.412 524.552 263.552 514.88 263.092 507.03C267.518 506.312 276.302 506.683 281.035 506.627C292.974 506.485 305.278 506.895 317.21 506.607C317.335 507.676 317.544 508.315 317.032 509.241C314.174 509.997 306.223 509.718 302.86 509.791C291.376 510.04 279.133 509.235 267.718 509.822C266.769 515.302 267.124 525.653 267.221 531.518C267.376 540.14 267.472 548.764 267.508 557.388C267.571 568.425 266.793 582.08 268.09 592.868C268.291 594.541 269.512 595.273 270.929 596.084C273.058 597.305 275.819 597.643 278.349 597.791C289.856 598.211 296.989 598.123 308.925 597.732C315.063 597.449 351.704 599.983 354.093 594.465C357.891 585.692 353.039 568.929 359.253 557.171C361.965 556.872 364.834 556.591 367.573 556.554C384.916 556.316 402.285 556.211 419.629 556.466C423.659 556.526 427.552 556.599 431.57 556.401C432.289 542.902 432.177 523.474 431.875 509.831C426.625 510.016 420.994 509.75 415.699 509.718L388.778 509.702L369.874 509.709C361.407 509.701 360.751 511.415 355.547 504.418C354.482 490.584 354.722 475.964 354.83 462.083C355.018 447.853 355.021 433.621 354.841 419.39C354.771 410.746 355.112 400.882 353.909 392.362C353.603 390.187 347.305 389.766 345.397 389.781C336.875 389.844 328.337 389.902 319.797 389.889C309.702 389.863 299.607 389.921 289.513 390.063C283.958 390.117 273.654 389.77 268.782 391.068C266.909 393.26 267.555 424.374 267.53 429.48C266.918 433.652 267.091 442.636 267.092 447.111C265.849 447.588 264.643 448.006 263.469 448.635C263.37 437.646 263.361 426.656 263.442 415.667C263.442 408.759 263.154 401.811 263.826 394.939C264.391 389.161 266.887 388.968 270.818 385.918Z"/><path fill="#1C191A" d="M317.093 453.65C318.954 454.56 319.882 455.479 320.569 457.463C322.753 463.77 322.565 495.759 321.809 503.877C319.55 504.58 318.787 504.606 317.307 506.39C317.746 502.606 317.443 492.868 317.408 488.66C317.322 478.036 317.758 466.375 317.098 455.863L317.093 453.65Z"/><path fill="#010102" d="M263.52 450.059C264.341 450.62 266.978 452.659 267.476 452.938C274.445 454.413 281.143 452.112 287.852 452.356C297.56 452.709 307.379 453.245 317.093 453.65L317.098 455.863C301.862 455.886 286.705 455.228 271.476 455.983C268.769 456.117 266.164 455.564 263.582 454.817C263.516 453.259 263.532 451.626 263.52 450.059Z"/><path fill="#1C191A" d="M267.092 447.111C267.091 442.636 266.918 433.652 267.53 429.48C267.705 437.053 267.161 445.717 267.476 452.938C266.978 452.659 264.341 450.62 263.52 450.059L263.469 448.635C264.643 448.006 265.849 447.588 267.092 447.111Z"/><path fill="#010102" d="M564.662 178.704C574.059 178.79 583.456 178.793 592.853 178.711C601.174 178.651 615.647 177.781 622.976 181.385C626.691 186.646 625.864 190.801 625.929 196.87C625.973 200.974 625.923 205.093 625.918 209.197L625.893 250.211L625.924 294.547C625.941 301.998 626.032 309.654 625.88 317.102C625.8 321.01 622.378 323.595 619.576 325.969C615.225 326.137 610.725 326.823 606.406 326.861C590.388 327 574.318 326.937 558.301 326.929C540.561 326.942 516.855 327.718 499.71 325.809C498.874 324.9 497.826 324.396 497.076 323.668C495.285 321.927 495.157 316.457 495.127 314.15C494.783 287.36 495.02 260.56 495.056 233.768L495.038 203.463C495.077 197.962 495.121 192.021 495.623 186.544C496.112 181.215 501.354 179.689 505.949 179.32C512.933 178.759 520.129 178.87 527.194 178.86C539.684 178.908 552.173 178.856 564.662 178.704Z"/><path fill="#2C2E34" d="M504.599 183.374C525.249 182.756 547.942 183.242 568.836 183.218L599.157 183.192C603.721 183.191 615.942 182.56 620.399 184.202C621.686 184.676 622.87 189.254 622.956 190.93C623.591 203.271 623.138 215.759 623.178 228.154C623.075 258.091 623.168 288.029 623.458 317.965C620.493 320.889 620.246 321.528 616.243 321.538C594.102 321.72 571.96 321.777 549.818 321.706C540.332 321.782 530.845 321.791 521.358 321.734C516.258 321.708 511.088 321.764 505.999 321.497C502.802 321.329 498.557 320.903 498.428 316.812C498.258 311.412 498.306 306.011 498.263 300.611L498.312 259.738L498.349 213.56C498.346 204.892 498.091 195.119 498.499 186.528C500.674 185.125 502.079 184.118 504.599 183.374Z"/><path fill="#010102" d="M224.349 457.435C227.808 457.142 231.591 457.024 235.074 457.122C244.398 457.386 254.258 456.556 263.496 457.436C263.984 470.693 263.306 484.355 263.613 497.653C263.672 500.201 263.668 503.262 263.528 505.807C253.574 509.867 235.774 506.973 224.514 507.766C224.517 519.318 224.238 531.706 224.386 543.143C224.622 553.831 224.714 564.523 224.662 575.213C224.66 581.133 224.771 587.934 223.891 593.804C223.551 596.068 220.822 598.693 219.218 600.43C207.338 600.853 194.917 600.386 182.929 600.55C176.477 600.638 168.712 601.239 162.457 600.369C160.483 600.094 158.057 597.845 156.492 596.503C156.049 590.78 156.511 585.698 155.727 579.995C155.833 577.178 155.877 576.005 155.528 573.224C155.864 562.308 154.611 516.959 157.641 509.402C161.983 505.449 174.731 506.619 180.906 506.631L213.845 506.672C216.273 506.685 221.865 507.041 223.851 506.658C223.733 503.913 223.503 500.549 223.643 497.841C224.235 486.367 222.945 474.97 224.152 463.527C224.347 461.684 224.312 459.317 224.349 457.435Z"/><path fill="#2C2E34" d="M160.416 509.884C163.654 509.733 167.098 509.76 170.343 509.778C187.228 509.87 204.312 509.384 221.167 510.105C221.354 519.809 221.577 529.67 221.61 539.366L221.511 565.603C221.511 573.921 221.974 584.297 220.585 592.403C220.292 594.115 218.722 595.577 217.504 596.802C216.516 597.356 215.604 597.898 214.44 597.927C201.374 598.258 188.289 597.833 175.215 598.226C171.38 598.342 166.61 598.545 162.889 597.945C158.006 591.487 159.145 587.543 159.117 579.782L159.214 558.03C159.258 542.916 159.023 527.613 159.409 512.484C159.454 510.753 159.484 510.692 160.416 509.884Z"/><path fill="#2C2E34" d="M226.769 460.251C237.907 460.584 249.315 460.309 260.631 460.61C261.005 466.413 261.705 500.136 259.732 503.431C256.455 504.973 229.115 504.988 227.302 503.227C225.878 498.761 226.602 466.57 226.769 460.251Z"/><path fill="#010102" d="M404.772 180.691C413.21 181.411 422.408 180.198 430.824 181.421C434.746 181.991 434.74 192.007 434.69 194.842C434.392 211.908 435.121 229.024 434.406 246.073C434.334 247.785 433.924 249.428 433.423 251.056C427.786 254.762 420.029 253.713 413.42 253.68C406.106 253.619 398.791 253.618 391.477 253.677C384.21 253.628 374.224 253.902 367.191 253.379L366.726 253.044C360.511 248.515 361.177 245.148 361.261 238.024C361.489 223.664 360.986 209.263 361.325 194.908C361.453 189.474 361.779 185.957 365.04 181.622C374.469 180.05 394.025 181.37 404.772 180.691Z"/><path fill="#2C2E34" d="M368.986 184.07C371.569 183.954 374.198 184.116 376.771 184.337C389.516 185.433 402.262 185.289 415.037 184.972C419.424 184.862 423.668 184.3 428.089 184.44C429.664 185.275 430.004 185.369 431.214 186.616C432.142 188.756 431.791 242.067 431.486 248.14C430.707 249.023 430.348 248.77 428.81 248.985C423.57 249.72 418.296 250.183 413.008 250.371C398.982 250.825 384.011 249.362 369.854 249.961C368.94 250 367.361 249.807 366.616 249.291C366.289 247.825 365.769 244.926 365.827 243.127C366.43 224.193 365.248 204.774 366.455 185.95C366.509 185.119 368.205 184.441 368.986 184.07Z"/><path fill="#010102" d="M369.128 290.739C386.789 289.82 405.864 290.926 423.689 290.636C426.14 290.597 433.688 291.448 433.946 294.542C435.537 313.575 434.613 333.486 434.217 352.63C434.191 353.89 432.85 356.224 432.223 357.375C430.375 357.69 428.292 357.778 426.406 357.912L390.765 357.883C382.921 357.879 373.875 358.358 366.117 357.13C364.764 356.916 364.1 355.361 363.452 354.309C360.083 348.835 361.763 342.8 361.596 336.786C361.858 323.146 360.63 309.072 362.075 295.557C362.07 295.602 363.326 293.013 363.425 292.811C365.48 291.842 366.869 291.017 369.128 290.739Z"/><path fill="#2C2E34" d="M366.769 294.683C386.307 294.024 412.075 294.287 431.731 294.59C431.243 313.034 432.51 331.815 431.123 350.201C431.005 351.772 429.976 353.243 429.099 354.487C427.419 355.025 415.848 354.454 413.243 354.443C405.251 354.422 397.258 354.455 389.266 354.544C382.195 354.656 374.324 355.441 367.466 353.85C365.381 351.618 365.311 298.651 366.769 294.683Z"/><path fill="#010102" d="M166.675 385.315C180.399 384.49 195.387 385.901 209.187 385.608C213.253 385.522 216.784 385.82 220.631 387.169C221.686 388.32 222.809 389.763 223.815 390.986C225.53 405.66 224.276 421.229 224.665 436.012C224.857 443.32 224.705 448.98 222.185 455.857C220.109 455.996 217.463 455.953 215.332 455.97C209.122 455.858 161.498 456.657 159.747 455.215C158.766 454.406 159.855 453.896 157.362 452.542C156.663 451.113 156.139 448.054 156.16 446.408C156.379 429.719 156.24 413.037 156.18 396.35C156.172 394.228 156.746 391.858 157.287 389.814C161.218 386.488 161.656 385.654 166.675 385.315Z"/><path fill="#2C2E34" d="M173.215 389.673C178.351 389.363 215.655 389.452 218.946 390.851C221.141 393.361 221.631 397.114 221.792 400.355C222.091 406.355 222.065 448.52 219.812 450.875C217.327 453.472 209.129 452.551 205.762 452.603C198.016 452.897 189.607 452.202 181.802 452.353C175.358 452.478 168.961 453.114 162.513 453.493C159.55 448.941 159.228 446.22 159.267 440.981C159.376 426.545 159.098 412.118 159.443 397.687C159.675 387.994 165.453 389.854 173.215 389.673Z"/><defs><linearGradient id="gradient_3" gradientUnits="userSpaceOnUse" x1="747.87244" y1="589.65924" x2="780.07831" y2="646.71692"><stop offset="0" stop-color="#DD7C40"/><stop offset="1" stop-color="#EF9C46"/></linearGradient></defs><path fill="url(#gradient_3)" d="M743.485 588.825C750.826 587.327 761.751 588.737 769.437 588.504C775.76 588.312 784.111 587.634 789.418 591.498C791.312 593.122 791.899 593.674 792.938 595.962C794.203 599.591 794.108 634.452 793.61 640.336C792.481 642.686 790.091 645.187 788.275 647.041C781.085 648.6 774.425 648.572 766.88 648.48C759.114 648.384 748.79 648.785 741.138 647.17C740.151 646.961 737.834 645.164 737.101 644.37C733.757 640.75 734.004 636.811 734.102 632.306C733.681 623.081 734.231 612.376 734.046 602.978C733.951 598.116 734.168 594.795 737.577 591.495C738.768 591.929 739.957 592.376 741.162 592.769L743.753 591.836C743.538 590.795 743.534 589.882 743.485 588.825Z"/><path fill="#CE6430" d="M737.577 591.495C738.768 591.929 739.957 592.376 741.162 592.769C736.147 596.376 736.886 599.586 736.793 605.367C737.532 615.941 736.751 627.197 737.852 637.722C738.002 639.151 739.455 642.11 740.117 643.547C749.719 645.597 776.553 645.159 786.837 644.431C793.088 637.755 791.185 625.75 791.456 617.034L791.737 617.142C791.72 613.554 791.599 608.898 791.946 605.396C792.294 601.873 792.78 599.628 792.938 595.962C794.203 599.591 794.108 634.452 793.61 640.336C792.481 642.686 790.091 645.187 788.275 647.041C781.085 648.6 774.425 648.572 766.88 648.48C759.114 648.384 748.79 648.785 741.138 647.17C740.151 646.961 737.834 645.164 737.101 644.37C733.757 640.75 734.004 636.811 734.102 632.306C733.681 623.081 734.231 612.376 734.046 602.978C733.951 598.116 734.168 594.795 737.577 591.495Z"/><path fill="#B5532C" d="M792.938 595.962C794.203 599.591 794.108 634.452 793.61 640.336C791.31 634.439 791.742 623.758 791.737 617.142C791.72 613.554 791.599 608.898 791.946 605.396C792.294 601.873 792.78 599.628 792.938 595.962Z"/><path fill="#B5532C" d="M737.577 591.495C738.768 591.929 739.957 592.376 741.162 592.769C736.147 596.376 736.886 599.586 736.793 605.367C736.749 606.499 736.682 616.618 736.466 616.85L736.536 617.731C736.711 615.627 736.582 618.044 736.495 616.732C736.157 611.674 736.306 605.393 736.336 600.401L736.125 600.276L735.914 600.947C735.281 600.322 735.576 600.546 735.564 599.132L735.138 599.431C734.417 603.898 735.355 631.037 734.102 632.306C733.681 623.081 734.231 612.376 734.046 602.978C733.951 598.116 734.168 594.795 737.577 591.495Z"/><path fill="#B5532C" d="M743.485 588.825C750.826 587.327 761.751 588.737 769.437 588.504C775.76 588.312 784.111 587.634 789.418 591.498L785.769 592.966C777.736 591.241 764.003 593.828 755.243 593.041C750.545 592.618 746.965 588.401 743.753 591.836C743.538 590.795 743.534 589.882 743.485 588.825Z"/><path fill="#CE6430" d="M785.769 592.966L789.418 591.498C791.312 593.122 791.899 593.674 792.938 595.962C792.78 599.628 792.294 601.873 791.946 605.396C791.599 608.898 791.72 613.554 791.737 617.142L791.456 617.034C791.253 611.31 791.993 604.591 790.979 599.122C790.351 595.737 788.489 594.549 785.769 592.966Z"/><path fill="#010102" fill-opacity="0.98431373" d="M175.568 761.279C178.113 761.239 189.878 761.106 191.53 761.718C191.443 761.779 184.76 761.931 184.234 761.822C185.718 763.318 195.148 763.505 198.127 764.026C185.578 764.342 167.096 763.861 154.887 761.733C157.713 761.292 161.682 762.254 164.751 762.393C168.184 762.548 171.322 762.527 174.756 762.492L174.736 762.109C173.726 761.648 172.683 761.795 171.543 761.813C172.545 761.426 174.413 761.37 175.568 761.279Z"/><path fill="#1C191A" fill-opacity="0.98431373" d="M713.302 361.649C714.776 366.25 711.569 381.08 711.562 386.085L712.221 385.837C713.51 383.841 713.251 382.568 714.05 380.866C716.794 375.025 714.866 366.123 717.197 360.676C717.499 366.13 715.69 382.168 712.666 386.507C711.504 387.149 708.295 387.096 706.837 387.057C707.441 386.378 707.743 385.727 708.2 384.934C713.425 380.114 712.695 368.843 713.302 361.649Z"/><path fill="#8E462A" d="M737.577 591.495C739.545 590.269 741.342 589.652 743.485 588.825C743.534 589.882 743.538 590.795 743.753 591.836L741.162 592.769C739.957 592.376 738.768 591.929 737.577 591.495Z"/></svg>