<?xml version="1.0" encoding="utf-8" ?><svg xmlns="http://www.w3.org/2000/svg" xmlns:xlink="http://www.w3.org/1999/xlink" width="800" height="250" viewBox="0 0 800 250"><path fill="#28292B" d="M47.9309 16.9807C53.3146 16.0204 66.5812 16.371 72.7743 16.3696L117.332 16.3608L172.27 16.3588C178.488 16.3592 195.647 15.9567 200.9 17.1532C209.955 18.0814 220.772 24.461 226.524 31.5117C226.581 31.5811 226.637 31.6509 226.692 31.721C236.777 43.5583 236.618 56.1111 236.608 70.7355L236.579 93.6634C236.577 116.48 237.041 141.106 236.411 163.791C220.392 163.427 203.551 163.718 187.468 163.76C187.483 167.359 187.712 184.586 187.236 186.908C188.544 190.25 189.048 190.332 192.203 192.048C198.566 194.32 212.856 197.101 216.843 198.904C218.738 200.755 222.583 210.891 223.369 213.62C225.726 219.402 233.672 215.432 236.055 221.132C237.105 223.644 237.332 237.716 234.114 238.342C225.08 240.1 214.569 238.272 205.284 238.739C199.345 238.869 196.618 238.179 191.908 234.896C188.859 229.263 190.493 228.613 185.437 221.728C184.326 220.257 183.255 218.668 182.201 217.148C180.334 214.632 175.638 207.967 173.329 206.566C165.189 201.628 144.849 206.228 136.381 203.425C135.712 198.329 135.629 180.739 136.557 175.85C144.414 175.765 152.272 175.749 160.13 175.801C160.111 169.529 160.145 163.257 160.232 156.986C152.798 157.479 144.18 157.043 136.551 157.138C135.846 152.862 135.871 149.251 135.99 144.957C135.732 137.85 135.952 129.534 135.967 122.337C144.226 121.861 155.512 122.199 163.948 122.202L216.163 122.183C216.286 108.477 216.278 94.7707 216.138 81.0651C216.096 72.0329 216.908 61.0907 214.901 52.4789C214.032 48.7489 210.758 44.7721 208.259 41.8504C197.53 33.5455 183.466 35.6198 170.519 35.6266L124.529 35.6587L77.3833 35.6296C54.7576 35.613 30.0785 32.1466 30.3434 63.3063C30.3993 69.8906 30.306 76.875 30.3158 83.4975L30.3184 127.954L30.3399 168.837C30.3358 176.528 29.6947 186.494 30.9104 193.952C33.635 210.667 47.6127 215.284 61.8803 216.497C85.649 216.688 109.419 216.751 133.188 216.686C143.165 216.682 153.462 216.328 163.433 216.889C163.56 216.896 164.745 217.872 164.909 218.044C165.045 218.187 165.178 218.333 165.307 218.483C167.928 222.739 170.558 227.098 173.129 231.389C173.97 232.792 174.198 233.584 173.391 235.001C170.808 236.53 160.86 235.923 157.309 235.917L128.987 235.89L80.2019 235.878C61.2185 235.881 43.0641 238.067 27.2014 225.631C7.58412 210.251 10.547 191.325 10.5457 169.254L10.5614 116.833L10.5352 73.1021C10.5318 66.4704 9.89688 56.6884 10.9237 50.4202C14.0813 31.1453 29.6478 18.9679 47.9309 16.9807Z"/><defs><linearGradient id="gradient_0" gradientUnits="userSpaceOnUse" x1="191.18945" y1="206.31717" x2="214.18121" y2="225.70688"><stop offset="0" stop-color="#813E2B"/><stop offset="1" stop-color="#FF9B4D"/></linearGradient></defs><path fill="url(#gradient_0)" d="M185.437 221.728L186.008 220.677C184.086 212.229 192.216 205.452 197.774 200.47C202.179 196.521 206.55 198.243 211.787 198.676C213.555 198.823 215.014 198.664 216.843 198.904C218.738 200.755 222.583 210.891 223.369 213.62C225.726 219.402 233.672 215.432 236.055 221.132C237.105 223.644 237.332 237.716 234.114 238.342C225.08 240.1 214.569 238.272 205.284 238.739C199.345 238.869 196.618 238.179 191.908 234.896C188.859 229.263 190.493 228.613 185.437 221.728Z"/><defs><linearGradient id="gradient_1" gradientUnits="userSpaceOnUse" x1="213.79529" y1="220.44992" x2="227.95486" y2="241.32487"><stop offset="0" stop-color="#F4A455"/><stop offset="1" stop-color="#FFCC76"/></linearGradient></defs><path fill="url(#gradient_1)" d="M223.369 213.62C225.726 219.402 233.672 215.432 236.055 221.132C237.105 223.644 237.332 237.716 234.114 238.342C225.08 240.1 214.569 238.272 205.284 238.739C204.842 238.456 204.74 238.177 204.465 237.713C204.24 236.009 205.437 234.191 205.997 232.595C208.436 225.648 213.174 221.034 219.227 217.122C220.405 216.36 222.893 214.78 223.369 213.62Z"/><path fill="#F6A04D" d="M190.355 217.068C194.126 216.985 197.807 220.996 200.112 223.812L199.697 224.443C194.537 224.937 193.615 223.783 189.594 220.71C189.934 219.78 190.175 218.095 190.355 217.068Z"/><path d="M47.9309 16.9807C53.3146 16.0204 66.5812 16.371 72.7743 16.3696L117.332 16.3608L172.27 16.3588C178.488 16.3592 195.647 15.9567 200.9 17.1532C196.505 18.4663 149.301 17.9729 141.84 17.9698L84.631 17.963C77.2441 17.9653 53.644 18.7846 47.9309 16.9807Z"/><path d="M226.692 31.721C236.777 43.5583 236.618 56.1111 236.608 70.7355L236.579 93.6634C236.577 116.48 237.041 141.106 236.411 163.791C220.392 163.427 203.551 163.718 187.468 163.76C187.483 167.359 187.712 184.586 187.236 186.908C186.068 182.477 186.767 167.702 187.03 162.53C201.661 161.606 220.449 162.135 235.197 162.52L235.509 108.922C235.572 103.326 236.262 97.9171 236.353 92.3456C236.473 79.7791 235.932 67.2149 234.734 54.705C234.381 50.8695 233.417 47.115 231.88 43.5834C230.558 40.5473 226.846 34.3808 226.692 31.721Z"/><path d="M208.259 41.8504C213.378 42.8083 216.358 51.0462 216.95 55.5736C217.686 61.2041 217.582 66.9647 217.605 72.6389C217.637 80.838 217.628 89.0373 217.578 97.2363C217.556 103.357 217.95 117.978 217.072 122.994C192.918 123.756 168.602 123.163 144.43 123.268C142.021 123.278 139.556 123.165 137.154 123.239C136.784 127.627 136.522 132.023 136.368 136.424C136.299 138.333 136.261 143.265 135.99 144.957C135.732 137.85 135.952 129.534 135.967 122.337C144.226 121.861 155.512 122.199 163.948 122.202L216.163 122.183C216.286 108.477 216.278 94.7707 216.138 81.0651C216.096 72.0329 216.908 61.0907 214.901 52.4789C214.032 48.7489 210.758 44.7721 208.259 41.8504Z"/><path d="M61.8803 216.497C85.649 216.688 109.419 216.751 133.188 216.686C143.165 216.682 153.462 216.328 163.433 216.889C163.56 216.896 164.745 217.872 164.909 218.044C165.045 218.187 165.178 218.333 165.307 218.483C158.387 217.31 142.631 217.916 134.804 217.971L89.4707 217.99C80.1642 218.035 70.8189 218.749 61.8803 216.497Z"/><path fill="#72402D" d="M192.203 192.048C198.566 194.32 212.856 197.101 216.843 198.904C215.014 198.664 213.555 198.823 211.787 198.676C206.55 198.243 202.179 196.521 197.774 200.47C192.216 205.452 184.086 212.229 186.008 220.677L185.437 221.728C184.326 220.257 183.255 218.668 182.201 217.148C182.7 214.302 180.154 212.375 178.473 209.526C180.7 211.517 182.248 213.925 183.785 215.233C184.492 214.436 184.361 212.372 184.401 211.192C187.795 207.997 195.67 195.739 200.921 195.645C199.94 194.464 193.311 194.421 192.203 192.048Z"/><path fill="#28292B" d="M323.599 68.4827C365.093 64.3013 384.796 88.5031 376.821 128.486C375.299 136.114 371.312 142.611 365.613 147.877C369.803 152.296 373.921 158.521 378.54 163.619C370.92 163.634 363.3 163.696 355.68 163.804L352.529 160.829C349.604 158.248 349.648 158.851 346.273 159.722C333.82 162.937 316.966 162.525 305.474 156.948C282.138 145.889 280.98 109.918 290.061 89.3721C294.485 79.3636 307.128 70.5661 317.704 69.4965C319.812 69.2832 321.541 69.1594 323.599 68.4827ZM340.013 144.044L335.402 139.338C332.668 135.518 330.407 133.611 327.899 130.403C336.247 130.258 344.597 130.261 352.945 130.412C360.136 118.154 359.936 96.205 346.268 88.2195C341.034 85.1615 333.193 84.1513 327.144 84.8467C304.597 89.2829 304.701 107.776 307.42 126.7C309.8 143.261 325.856 146.617 340.013 144.044Z"/><path fill="#28292B" d="M389.904 69.3662C395.022 68.8772 404.982 69.0112 410.403 69.1852C419.952 69.4916 437.328 67.9581 445.89 71.1062C462.981 75.9421 466.74 94.4685 462.831 109.697C460.286 119.609 453.37 124.168 444.317 127.365C449.644 134.426 454.474 141.83 459.359 149.207C461.547 152.511 464.849 156.76 466.728 160.003C460.125 160.055 450.477 160.337 443.996 159.785L431.203 139.139C429.666 136.605 426.826 132.141 425.627 129.672C421.665 129.673 412.779 129.902 409.338 129.561L408.29 129.495C406.784 131.525 407.58 155.581 407.505 159.947C405.922 159.902 399.341 159.631 398.119 159.99L391.438 160.065C390.772 160.083 390.532 159.932 389.923 159.683C389.733 157.812 389.893 152.43 389.897 150.305L389.904 131.452L389.904 69.3662ZM443.233 104.382C444.919 102.021 445.338 97.9542 444.874 95.176C444.348 91.8491 442.48 88.884 439.706 86.9735C433.627 82.751 415.274 83.216 407.945 84.1574C407.033 89.1105 407.419 108.652 407.434 114.765C407.973 114.673 410.071 114.368 410.419 114.155C414.195 113.854 418.342 114.029 422.139 113.97C431.854 113.819 439.108 114.567 443.233 104.382Z"/><path d="M389.904 69.3662C395.022 68.8772 404.982 69.0112 410.403 69.1852C419.952 69.4916 437.328 67.9581 445.89 71.1062C439.081 70.503 431.369 70.7046 424.459 70.7067L391.296 70.73C390.416 99.3822 391.963 128.624 390.997 157.358C390.973 158.077 391.014 159.504 391.438 160.065C390.772 160.083 390.532 159.932 389.923 159.683C389.733 157.812 389.893 152.43 389.897 150.305L389.904 131.452L389.904 69.3662Z"/><path d="M407.945 84.1574C415.274 83.216 433.627 82.751 439.706 86.9735C442.48 88.884 444.348 91.8491 444.874 95.176C445.338 97.9542 444.919 102.021 443.233 104.382C447.652 79.2602 424.328 86.4961 409.124 85.3401C409.09 89.153 408.6 112.824 409.564 113.979L410.419 114.155C410.071 114.368 407.973 114.673 407.434 114.765C407.419 108.652 407.033 89.1105 407.945 84.1574Z"/><path fill="#28292B" d="M689.911 93.5712C696.694 92.8157 709.389 93.9543 715.924 96.4622C719.141 97.6965 721.529 99.2334 724.362 101.117C724.135 115.324 724.432 129.555 724.296 143.776C724.214 152.399 725.081 161.265 723.366 169.768C720.731 182.826 708.167 187.34 696.245 187.485C687.512 187.505 677.965 187.305 669.504 185.275C669.586 180.638 669.541 175.873 669.553 171.226C672.705 170.62 684.077 172.809 688.681 172.668C701.543 172.273 706.938 171.811 707.078 156.814C702.625 159.86 699.738 160.469 694.461 160.966C674.847 162.824 663.169 153.271 662.401 133.328C661.582 112.088 664.564 94.6734 689.911 93.5712ZM695.456 146.572C698.322 146.501 704.355 145.894 706.13 143.647C707.602 141.784 707.069 130.266 707.069 127.55C707.067 121.754 707.236 115.939 706.959 110.359C703.344 108.472 697.584 106.569 693.533 107.537C690.125 108 686.589 108.644 684.58 111.795C680.806 117.717 680.729 127.145 681.585 133.909C682.729 142.943 686.425 146.538 695.456 146.572Z"/><path fill="#28292B" d="M569.203 93.5928C569.426 93.5559 569.651 93.5258 569.877 93.5028C589.818 91.5768 607.042 97.6871 608.646 120.464C610.157 141.935 605.916 158.663 581.345 161.119C581.23 161.14 581.115 161.161 580.999 161.182C560.209 162.506 544.932 157.154 543.097 134.49C541.359 113.029 544.693 95.7967 569.203 93.5928ZM579.747 146.458C593.173 144.04 593.079 116.308 583.933 109.347C581.537 107.524 575.855 107.379 572.79 107.549C559.978 109.895 560.781 125.517 562.106 135.484C563.418 145.343 570.998 147.844 579.747 146.458Z"/><path fill="#28292B" d="M477.396 159.796L476.197 159.479C475.736 148.559 476.203 134.815 476.177 123.62L476.175 86.0991C476.185 82.4637 475.602 72.7321 476.533 69.7911C480.504 68.5735 538.914 69.0638 544.594 69.4297C544.482 75.0083 544.62 79.842 544.326 85.5501C533.051 85.2925 521.517 85.6406 510.225 85.517C507.056 85.4823 498.223 85.7965 495.539 85.2323C496.293 88.0252 496.202 105.119 495.818 108.229C502.725 108.028 513.319 107.877 520.236 108.181C525.017 108.152 530.551 108.254 535.265 108.047C535.35 110.699 535.865 122.828 535.162 124.262C522.116 123.988 508.917 124.562 495.795 124.185C496.522 135.75 495.572 148.389 496.195 160.063C493.474 159.977 478.72 160.171 477.396 159.796Z"/><path d="M477.396 159.796L476.197 159.479C475.736 148.559 476.203 134.815 476.177 123.62L476.175 86.0991C476.185 82.4637 475.602 72.7321 476.533 69.7911C480.504 68.5735 538.914 69.0638 544.594 69.4297C544.482 75.0083 544.62 79.842 544.326 85.5501C533.051 85.2925 521.517 85.6406 510.225 85.517C507.056 85.4823 498.223 85.7965 495.539 85.2323L495.672 84.6188C498.739 83.5623 536.357 84.2375 542.898 84.3882C543.237 79.5681 543.302 75.7212 543.297 70.9257C521.325 70.6713 499.351 70.5958 477.377 70.6992C478.011 78.3348 477.756 88.2343 477.73 96.0307L477.664 132.803C477.648 138.307 478.412 154.895 477.396 159.796Z"/><path d="M520.236 108.181C525.017 108.152 530.551 108.254 535.265 108.047C535.35 110.699 535.865 122.828 535.162 124.262C533.758 121.988 533.877 112.577 533.811 109.392C528.396 109.569 525.495 109.45 520.236 108.181Z"/><path fill="#28292B" d="M781.623 160.121C779.116 161.049 766.948 161.695 763.819 161.51C755.438 161.012 747.07 160.095 741.106 153.54C733.481 145.161 733.184 132.622 733.583 121.929C733.864 114.419 736.313 104.706 742.074 99.6142C749.379 93.1575 758.688 93.4149 767.814 93.7336C773.238 93.923 781.097 95.5507 784.823 99.6744C793.43 107.106 792.875 122.69 792.507 133.227C785.223 133.214 761.106 133.065 752.352 133.273C752.325 133.274 751.75 133.824 751.673 133.945C752.499 136.845 752.811 138.786 754.334 141.383C756.145 144.471 758.811 144.89 760.192 146.228C771.352 147.622 780.996 146.743 791.506 142.78C791.488 147.301 791.604 152.48 791.446 156.937C787.682 158.8 785.891 159.617 781.623 160.121ZM751.549 121.161L766.047 121.148L776.401 121.214C775.645 111.058 772.528 106.142 761.855 106.724C753.548 109.041 752.362 113.011 751.549 121.161Z"/><path d="M784.823 99.6744C793.43 107.106 792.875 122.69 792.507 133.227C785.223 133.214 761.106 133.065 752.352 133.273C752.325 133.274 751.75 133.824 751.673 133.945L751.233 132.415L751.71 131.89C762.747 131.102 779.988 131.573 791.459 131.588C791.575 123.651 791.301 114.834 788.73 107.249C787.881 104.742 785.506 102.536 784.823 99.6744Z"/><path d="M760.192 146.228C771.352 147.622 780.996 146.743 791.506 142.78C791.488 147.301 791.604 152.48 791.446 156.937C787.682 158.8 785.891 159.617 781.623 160.121C782.103 158.624 785.623 158.452 787.179 157.606C788.275 157.011 789.123 156.599 790.174 155.896C790.42 152.852 790.432 149.004 790.521 145.896C783.694 146.175 765.029 150.419 760.192 146.228Z"/><path fill="#28292B" d="M83.1967 122.083C92.9916 121.611 103.42 122.129 113.29 121.9C112.983 133.436 113.696 146.615 113.136 157.767C120.154 158.005 129.107 158.027 136.108 157.658C136.079 162.822 135.844 170.325 136.145 175.317C131.548 174.622 118.365 174.951 113.261 174.98C113.266 178.758 113.158 183.362 113.388 187.072C103.303 187.002 93.2187 187.019 83.1346 187.121C83.1519 178.94 83.412 168.961 83.0436 160.942C80.0062 160.945 75.1417 161.098 72.2489 160.874C71.0021 159.113 72.972 147.15 71.6381 143.588C75.4201 143.751 79.3776 143.526 83.1738 143.374C83.1246 136.278 83.1323 129.18 83.1967 122.083ZM84.0455 159.628C87.2307 159.123 96.8506 159.347 100.468 159.347C100.414 155.063 100.208 148.45 100.782 144.37C95.0833 144.479 89.3835 144.506 83.6843 144.45C83.6413 148.763 83.4913 155.401 84.0455 159.628Z"/><path fill="#28292B" d="M51.5904 56.3258C54.957 56.1574 60.3421 56.365 63.8866 56.3635C74.5644 56.4461 85.2427 56.4397 95.9204 56.3443C95.9042 70.0848 95.4909 86.5186 96.0791 100.098L95.9686 101.318C94.6886 102.292 55.1211 101.783 51.1298 101.762C51.399 95.6001 50.4918 59.3265 51.5904 56.3258Z"/><path fill="#28292B" d="M157.006 56.4335C168.943 56.3267 181.006 56.5735 192.926 56.2405L193.02 84.5592C193.035 89.3766 193.302 96.7655 192.904 101.257C191.873 102.043 191.773 101.81 190.332 101.858C178.896 101.934 167.347 101.561 155.931 101.813C156.689 87.6985 155.441 72.7228 155.993 58.5267C156.048 57.1279 156.041 57.2323 157.006 56.4335Z"/><path fill="#28292B" d="M642.546 97.4008C647.79 94.4409 653.541 93.8775 659.547 93.7621C659.532 96.1301 659.63 110.77 658.915 112.176C632.005 109.357 636.373 124.556 636.215 144.762C636.178 149.525 635.762 155.501 636.264 160.14C632.055 160.042 627.845 159.996 623.635 160.002L618.394 160.058C618.975 155.848 618.698 142.788 618.696 137.952L618.709 94.7149C619.824 94.6531 620.942 94.6193 622.059 94.6137C624.318 94.5888 634.973 94.1046 636.086 95.1939C636.024 98.427 635.975 101.269 636.14 104.5C637.76 101.426 639.345 99.0583 642.546 97.4008Z"/><path d="M618.709 94.7149C619.824 94.6531 620.942 94.6193 622.059 94.6137C624.318 94.5888 634.973 94.1046 636.086 95.1939C631.98 96.5262 624.911 96.2185 620.352 96.5146C619.989 102.646 619.238 157.537 620.712 159.685C621.772 159.842 622.566 159.939 623.635 160.002L618.394 160.058C618.975 155.848 618.698 142.788 618.696 137.952L618.709 94.7149Z"/><path d="M642.546 97.4008C647.79 94.4409 653.541 93.8775 659.547 93.7621C659.532 96.1301 659.63 110.77 658.915 112.176C656.847 109.336 658.129 99.0236 658.553 95.2687C651.616 94.6895 649.181 96.7331 642.546 97.4008Z"/><path d="M51.1309 121.889C56.1915 121.55 65.9085 121.586 71.2414 121.555C72.2244 126.089 70.87 140.826 71.6381 143.588C72.972 147.15 71.0021 159.113 72.2489 160.874L71.9955 160.982C71.167 161.94 71.6041 183.562 71.6153 187.126C65.0628 186.93 57.755 187.085 51.145 187.085C51.5405 179.024 51.1575 168.016 51.1105 159.721C57.417 159.48 64.2874 159.682 70.6368 159.752C70.6013 157.254 71.0717 144.695 70.3968 143.597C64.5237 143.949 56.8895 143.881 51.0403 143.679C51.5473 138.874 51.1653 127.196 51.1309 121.889Z"/><path fill="#28292B" d="M51.1309 121.889C56.1915 121.55 65.9085 121.586 71.2414 121.555C70.2323 126.999 70.4906 137.21 70.8422 142.981C70.6692 143.22 70.5208 143.425 70.3968 143.597C64.5237 143.949 56.8895 143.881 51.0403 143.679C51.5473 138.874 51.1653 127.196 51.1309 121.889Z"/><path fill="#28292B" d="M52.3304 160.941C58.1757 161.217 64.8993 160.993 70.7672 160.863C70.6083 165.137 71.137 183.589 70.5632 185.545C64.447 185.557 58.1794 185.482 52.0847 185.859C52.3425 177.556 52.4244 169.248 52.3304 160.941Z"/><path d="M364.452 192.265C370.28 192.302 383.006 190.881 386.379 195.216C392.404 202.959 387.806 212.647 377.832 212.525L369.393 212.527L369.405 223.747L364.41 223.953C364.698 213.859 364.447 202.48 364.452 192.265ZM382.17 206.854C387.84 195.864 376.456 196.244 369.362 196.133L369.383 208.6C374.794 207.715 377.424 209.245 382.17 206.854Z"/><path fill="#28292B" d="M376.884 193.528C382.256 193.05 383.928 193.459 386.992 197.945C387.082 199.135 387.095 200.352 387.189 201.533C388.085 212.82 376.877 211.839 368.776 211.591C368.86 212.888 368.73 215.018 368.682 216.386C368.485 218.248 368.5 222.039 366.777 222.903L366.098 222.218C364.811 218.566 365.571 198.846 365.806 193.972C369.053 193.668 373.248 193.806 376.884 193.528ZM382.17 206.854C387.84 195.864 376.456 196.244 369.362 196.133L369.383 208.6C374.794 207.715 377.424 209.245 382.17 206.854Z"/><path fill="#28292B" d="M121.663 56.4217C125.499 56.4155 134.05 56.1938 137.499 56.5168L137.518 78.4711C129.953 78.4002 122.087 78.2762 114.526 78.4912C114.513 75.739 114.188 57.6085 114.843 56.6967C117.266 56.4605 119.248 56.441 121.663 56.4217Z"/><path d="M121.663 56.4217C125.499 56.4155 134.05 56.1938 137.499 56.5168L137.518 78.4711C129.953 78.4002 122.087 78.2762 114.526 78.4912C114.513 75.739 114.188 57.6085 114.843 56.6967C115.698 60.3962 115.553 72.1904 116.091 77.4134L135.894 77.3619L135.961 57.8135C134.249 57.8431 124.044 56.7242 121.663 56.4217Z"/><path fill="#28292B" d="M114.586 90.6215C122.205 90.808 129.823 90.558 137.441 90.71C137.459 93.7154 137.767 109.178 137.199 111.346C136.067 112.071 134.036 111.89 132.68 111.806C131.469 112.317 125.039 111.891 123.446 111.81C120.366 111.92 117.635 112.006 114.55 111.923C114.441 104.823 114.453 97.7213 114.586 90.6215Z"/><path d="M114.586 90.6215C122.205 90.808 129.823 90.558 137.441 90.71C137.459 93.7154 137.767 109.178 137.199 111.346C136.067 112.071 134.036 111.89 132.68 111.806C133.225 111.609 135.356 110.854 135.413 110.653C136.37 107.294 135.937 95.4837 135.953 92.1972C129.585 92.4396 122.288 92.282 115.834 92.3054C115.325 97.4518 115.496 105.823 115.976 110.927C118.738 110.976 120.833 110.885 123.446 111.81C120.366 111.92 117.635 112.006 114.55 111.923C114.441 104.823 114.453 97.7213 114.586 90.6215Z"/><path fill="#28292B" d="M321.007 192.193C322.795 191.979 325.575 192.104 327.45 192.132C331.567 202.576 335.84 213.602 340.438 223.824L334.965 223.826C334.073 222.085 332.844 218.642 332.09 216.713L326.856 216.56C323.428 216.668 319.999 216.667 316.571 216.556C315.769 218.45 314.727 221.75 314.02 223.788C312.27 223.82 310.61 223.969 308.952 223.437C308.684 222.416 319.578 195.598 321.007 192.193ZM317.834 212.615L323.34 212.589C325.67 212.6 328.063 212.581 330.387 212.673C329.656 210.794 324.827 197.269 324.288 196.727C321.984 201.827 320.314 207.718 317.834 212.615Z"/><path fill="#DA7845" d="M231.492 182.056C246.808 180.551 249.938 198.44 237.139 202.212C231.613 202.526 225.704 201.14 223.794 195.238C222.983 192.744 223.206 190.03 224.414 187.702C225.866 184.882 228.509 182.988 231.492 182.056Z"/><path fill="#28292B" d="M413.916 192.17L419.258 192.207C419.131 198.222 419.979 219.011 418.939 223.512C417.601 223.964 417.014 224.013 415.641 224.174L414.646 223.8C413.464 222.162 413.973 204.155 414.075 200.866L413.916 192.17Z"/><path d="M413.916 192.17L419.258 192.207C419.131 198.222 419.979 219.011 418.939 223.512C417.601 223.964 417.014 224.013 415.641 224.174C416.287 223.364 417.019 222.35 417.067 221.331C417.258 217.362 418.768 196.322 416.678 194.064L415.945 194.279C414.467 196.357 414.449 198.317 414.075 200.866L413.916 192.17Z"/><path d="M407.505 159.947C407.58 155.581 406.784 131.525 408.29 129.495L409.338 129.561C408.739 132.509 409.058 155.586 409.076 160.093L398.119 159.99C399.341 159.631 405.922 159.902 407.505 159.947Z"/></svg>